<svg xmlns="http://www.w3.org/2000/svg" viewBox="0 0 200.81 200.81"><path d="M100.4 0C45.05 0 0 45.04 0 100.4c0 55.37 45.04 100.42 100.4 100.42a7.5 7.5 0 100-15c-47.09 0-85.4-38.32-85.4-85.41C15 53.3 53.31 15 100.4 15s85.41 38.31 85.41 85.4v23.24c0 8.67-7.05 15.72-15.73 15.72a15.74 15.74 0 01-15.72-15.72V100.4a54.01 54.01 0 00-53.95-53.96 54.01 54.01 0 00-53.96 53.96 54.02 54.02 0 0053.96 53.95c16.5 0 31.3-7.46 41.2-19.18a30.77 30.77 0 0028.47 19.18 30.76 30.76 0 0030.73-30.72V100.4C200.81 45.04 155.77 0 100.41 0zm0 139.36a39 39 0 01-38.95-38.95 39 39 0 0138.96-38.96 39 39 0 0138.95 38.96 39 39 0 01-38.95 38.95z"/></svg>